<svg xmlns="http://www.w3.org/2000/svg" version="1.1" xmlns:xlink="http://www.w3.org/1999/xlink" width="512" height="512" x="0" y="0" viewBox="0 0 64 64" style="enable-background:new 0 0 512 512" xml:space="preserve" class=""><g><path d="M27.69 50H9a3.003 3.003 0 0 1-3-3V31.315A6.946 6.946 0 0 0 9 32h3v1a4 4 0 0 0 8 0v-1h15a1 1 0 0 0 1-1v-4h4v.69a1 1 0 0 0 2 0V26a1 1 0 0 0-1-1h-6a1 1 0 0 0-1 1v4H20v-4a1 1 0 0 0-1-1h-6a1 1 0 0 0-1 1v4H9a5.006 5.006 0 0 1-5-5V15a1.001 1.001 0 0 1 1-1h44a1.001 1.001 0 0 1 1 1v10a4.948 4.948 0 0 1-.477 2.118 1 1 0 1 0 1.811.85A6.935 6.935 0 0 0 52 25V15a3.003 3.003 0 0 0-3-3H37V7a5.006 5.006 0 0 0-5-5H22a5.006 5.006 0 0 0-5 5v5H5a3.003 3.003 0 0 0-3 3v10a6.973 6.973 0 0 0 2 4.89V47a5.006 5.006 0 0 0 5 5h18.69a1 1 0 0 0 0-2ZM14 27h4v6a2 2 0 0 1-4 0Zm17-15h-8V8h8ZM19 7a3.003 3.003 0 0 1 3-3h10a3.003 3.003 0 0 1 3 3v5h-2V7a1 1 0 0 0-1-1H22a1 1 0 0 0-1 1v5h-2Zm34.228 29.849a1.001 1.001 0 0 0-.429-.733 11.996 11.996 0 0 0-16.683 16.683 1.001 1.001 0 0 0 .733.429c.03.003.06.004.09.004a1 1 0 0 0 .707-.293L52.94 37.647a1 1 0 0 0 .289-.798ZM37.134 50.623a9.998 9.998 0 0 1 13.489-13.489ZM46 30a16 16 0 1 0 16 16 16.018 16.018 0 0 0-16-16Zm0 30a14 14 0 1 1 14-14 14.016 14.016 0 0 1-14 14Zm9.884-20.8a1.001 1.001 0 0 0-.733-.428 1.017 1.017 0 0 0-.798.289L39.061 54.353a1 1 0 0 0 .14 1.531 11.996 11.996 0 0 0 16.683-16.683ZM46 56a9.934 9.934 0 0 1-4.623-1.134l13.489-13.489A9.998 9.998 0 0 1 46 56Z" data-name="08-Job Loss" fill="#197aa5" opacity="1" data-original="#000000" class=""></path></g></svg>