<svg xmlns="http://www.w3.org/2000/svg" version="1.1" xmlns:xlink="http://www.w3.org/1999/xlink" width="512" height="512" x="0" y="0" viewBox="0 0 512 512" style="enable-background:new 0 0 512 512" xml:space="preserve" class=""><g><path d="m342.877 405.202 124.732-62.696-73.425-132.989-92.329 48.303-43.139 35.312z" style="" fill="#ffe5c2" data-original="#ffe5c2"></path><path d="m355.606 371.84-12.721-4.869c9.071 3.134 19.055-1.478 22.501-10.509 3.515-9.213-1.104-19.531-10.317-23.046l-80.272-30.741-25.012-9.543-8.603-17.989c-5.062-10.585-11.375-16.732-27.968-21.69L108.282 222.44l-15.99 136.388 66.929 52.628 64.661 24.67 78.565 30.089c9.213 3.515 19.531-1.104 23.046-10.317 3.515-9.213-1.104-19.531-10.317-23.046l-69.536-26.631.001-.002 84.508 32.346c9.213 3.515 19.531-1.104 23.046-10.317 3.515-9.213-1.104-19.531-10.317-23.046 9.213 3.515 19.531-1.104 23.046-10.317 3.514-9.213-1.105-19.531-10.318-23.045z" style="" fill="#ffbd86" data-original="#ffbd86"></path><path d="M351.269 257.82h-79.74c-17.549 0-32.913 11.78-37.468 28.727l-9.877 36.748c-2.885 10.735 3.527 21.766 14.284 24.57 9.88 2.576 20.116-2.697 23.755-12.236l12.573-32.954 18.903 7.239c18.195 6.968 38.591-2.162 45.513-20.375l12.057-31.719z" style="" fill="#ffe5c2" data-original="#ffe5c2"></path><path d="m315.174 432.852-78.565-30.089-2.95 7.731 58.378 22.358c9.213 3.515 13.832 13.833 10.317 23.046a17.772 17.772 0 0 1-6.04 7.969l6.131 2.348c9.213 3.515 19.531-1.104 23.046-10.317 3.515-9.214-1.104-19.531-10.317-23.046zM342.877 405.202 249.339 369.4a8.28 8.28 0 0 0 4.776 10.684l65.626 25.119c9.213 3.515 13.832 13.833 10.317 23.046a17.76 17.76 0 0 1-6.042 7.97l6.132 2.347c9.213 3.515 19.531-1.104 23.046-10.317 3.515-9.214-1.104-19.532-10.317-23.047z" style="" fill="#f6a96c" data-original="#f6a96c" class=""></path><path d="m355.606 371.84-93.538-35.802a8.28 8.28 0 0 0 4.776 10.684l65.626 25.119c9.213 3.515 13.832 13.833 10.317 23.046a17.76 17.76 0 0 1-6.042 7.97l6.132 2.347c9.213 3.515 19.531-1.104 23.046-10.317 3.515-9.215-1.104-19.533-10.317-23.047z" style="" fill="#f6a96c" data-original="#f6a96c" class=""></path><path d="m355.068 333.415-80.272-30.741a8.284 8.284 0 0 0 4.777 10.69l52.358 20.051c9.213 3.515 13.832 13.833 10.317 23.046a17.767 17.767 0 0 1-6.041 7.969l6.131 2.348c9.213 3.515 19.531-1.104 23.046-10.317 3.516-9.213-1.103-19.531-10.316-23.046z" style="" fill="#f6a96c" data-original="#f6a96c" class=""></path><path d="M265.999 466.833c9.002 4.025 19.562-.009 23.587-9.011l8.851-18.803c4.025-9.002-.009-19.562-9.011-23.587-9.002-4.025-19.562.009-23.587 9.011l-8.851 18.803c-4.025 9.002.009 19.562 9.011 23.587z" style="" fill="#ffe5c2" data-original="#ffe5c2"></path><path d="M226.859 466.887c9.002 4.025 19.562-.009 23.587-9.011l15.393-33.434c4.025-9.002-.009-19.562-9.011-23.587-9.002-4.025-19.562.009-23.587 9.011L217.848 443.3c-4.025 9.002.009 19.562 9.011 23.587z" style="" fill="#ffe5c2" data-original="#ffe5c2"></path><path d="M194.261 452.311c9.002 4.025 19.562-.009 23.587-9.011l15.393-33.434c4.025-9.002-.009-19.562-9.011-23.587-9.002-4.025-19.562.009-23.587 9.011l-15.393 33.434c-4.025 9.002.009 19.562 9.011 23.587z" style="" fill="#ffe5c2" data-original="#ffe5c2"></path><path d="M167.46 424.772c9.002 4.025 19.562-.009 23.587-9.011l9.597-20.472c4.025-9.002-.009-19.562-9.011-23.587-9.002-4.025-19.562.009-23.587 9.011l-9.597 20.472c-4.025 9.002.009 19.562 9.011 23.587z" style="" fill="#ffe5c2" data-original="#ffe5c2"></path><path d="M289.426 415.432c-5.815-2.6-12.279-1.833-17.213 1.46 7.112 4.745 9.981 14.06 6.374 22.127l-8.851 18.803a17.775 17.775 0 0 1-6.374 7.551c.824.55 1.702 1.042 2.637 1.46 9.002 4.025 19.562-.009 23.587-9.011l8.851-18.803c4.025-9.002-.009-19.562-9.011-23.587zM256.829 400.856c-5.815-2.6-12.279-1.833-17.213 1.46 7.112 4.745 9.981 14.06 6.374 22.127l-15.393 33.434a17.775 17.775 0 0 1-6.374 7.551c.824.55 1.702 1.042 2.637 1.46 9.002 4.025 19.562-.009 23.587-9.011l15.393-33.434c4.024-9.002-.01-19.562-9.011-23.587zM224.231 386.279c-5.815-2.6-12.279-1.833-17.213 1.46 7.112 4.745 9.981 14.06 6.374 22.127L197.999 443.3a17.775 17.775 0 0 1-6.374 7.551c.824.55 1.702 1.042 2.637 1.46 9.002 4.025 19.562-.009 23.587-9.011l15.393-33.434c4.025-9.001-.01-19.561-9.011-23.587zM191.633 371.703c-5.815-2.6-12.279-1.833-17.213 1.46 7.112 4.745 9.981 14.06 6.374 22.127l-9.597 20.472a17.775 17.775 0 0 1-6.374 7.551c.824.55 1.702 1.042 2.637 1.46 9.002 4.025 19.562-.009 23.587-9.011l9.597-20.472c4.025-9.002-.009-19.562-9.011-23.587z" style="" fill="#fed2a4" data-original="#fed2a4"></path><path d="m495.7 345.147-62.121 34.298c-8.232 4.545-18.589 1.556-23.134-6.676L337.043 239.82c-4.545-8.232-1.556-18.589 6.676-23.134l62.121-34.298c8.232-4.545 18.589-1.556 23.134 6.676l73.402 132.949c4.545 8.232 1.556 18.589-6.676 23.134z" style="" fill="#8ebac5" data-original="#8ebac5"></path><path d="m495.7 345.144-62.12 34.3c-8.23 4.55-18.59 1.56-23.14-6.67l-8.242-14.942 46.742-25.562c8.23-4.54 11.22-14.9 6.68-23.13l-65.54-118.056 15.76-8.7c8.23-4.54 18.59-1.55 23.13 6.68l73.41 132.95c4.54 8.23 1.55 18.59-6.68 23.13z" style="" fill="#7ca1b1" data-original="#7ca1b1" class=""></path><path d="m16.3 345.147 62.121 34.298c8.232 4.545 18.589 1.556 23.134-6.676l73.403-132.949c4.545-8.232 1.556-18.589-6.676-23.134l-62.121-34.298c-8.232-4.545-18.589-1.556-23.134 6.676L9.624 322.013c-4.545 8.232-1.556 18.589 6.676 23.134z" style="" fill="#cb97e7" data-original="#cb97e7" class=""></path><path d="m174.96 239.824-73.41 132.95c-4.54 8.23-14.9 11.22-23.13 6.67l-15.75-8.7 66.32-120.671c4.54-8.24 1.55-18.59-6.68-23.14l-46.313-25.137 7.033-12.732c4.54-8.23 14.9-11.22 23.13-6.68l62.12 34.3c8.23 4.55 11.22 14.9 6.68 23.14z" style="" fill="#bd80e1" data-original="#bd80e1" class=""></path><circle cx="261.521" cy="112.058" r="70.672" style="" fill="#f8992f" data-original="#fee45a" class="" opacity="1"></circle><path d="M261.521 41.387c-4.986 0-9.85.526-14.546 1.513 32.013 6.726 56.125 35.176 56.125 69.159 0 33.983-24.112 62.434-56.125 69.159a70.665 70.665 0 0 0 14.546 1.513c38.969 0 70.672-31.703 70.672-70.672 0-38.969-31.703-70.672-70.672-70.672z" style="" fill="#de7500" data-original="#ffd655" class="" opacity="1"></path><path d="m156.932 409.661-52.814-41.535M336.874 239.499l-35.019 18.321M240.374 273.515c-4.944-9.598-11.437-15.364-27.161-20.063l-39.359-11.633M265.999 466.833h0c9.002 4.025 19.562-.009 23.587-9.011l8.851-18.803c4.025-9.002-.009-19.562-9.011-23.587h0c-9.002-4.025-19.562.009-23.587 9.011l-8.851 18.803c-4.025 9.002.009 19.562 9.011 23.587z" style="stroke-width:15;stroke-linecap:round;stroke-linejoin:round;stroke-miterlimit:10;" fill="none" stroke="#23577c" stroke-width="15" stroke-linecap="round" stroke-linejoin="round" stroke-miterlimit="10" data-original="#000000" class="" opacity="1"></path><path d="M226.859 466.887h0c9.002 4.025 19.562-.009 23.587-9.011l15.393-33.434c4.025-9.002-.009-19.562-9.011-23.587h0c-9.002-4.025-19.562.009-23.587 9.011L217.848 443.3c-4.025 9.002.009 19.562 9.011 23.587z" style="stroke-width:15;stroke-linecap:round;stroke-linejoin:round;stroke-miterlimit:10;" fill="none" stroke="#23577c" stroke-width="15" stroke-linecap="round" stroke-linejoin="round" stroke-miterlimit="10" data-original="#000000" class="" opacity="1"></path><path d="M194.261 452.311h0c9.002 4.025 19.562-.009 23.587-9.011l15.393-33.434c4.025-9.002-.009-19.562-9.011-23.587h0c-9.002-4.025-19.562.009-23.587 9.011l-15.393 33.434c-4.025 9.002.009 19.562 9.011 23.587z" style="stroke-width:15;stroke-linecap:round;stroke-linejoin:round;stroke-miterlimit:10;" fill="none" stroke="#23577c" stroke-width="15" stroke-linecap="round" stroke-linejoin="round" stroke-miterlimit="10" data-original="#000000" class="" opacity="1"></path><path d="M167.46 424.772h0c9.002 4.025 19.562-.009 23.587-9.011l9.597-20.472c4.025-9.002-.009-19.562-9.011-23.587h0c-9.002-4.025-19.562.009-23.587 9.011l-9.597 20.472c-4.025 9.002.009 19.562 9.011 23.587zM366.423 393.367l43.361-21.795M301.855 257.82h-30.326c-17.549 0-32.913 11.78-37.468 28.727l-9.877 36.748c-2.885 10.735 3.527 21.766 14.284 24.57h0c9.88 2.576 20.116-2.697 23.755-12.236l12.573-32.954 18.903 7.239c13.038 4.993 27.206 1.72 36.737-7.237M299.293 426.768l15.883 6.08c9.211 3.517 13.829 13.837 10.312 23.048-3.509 9.211-13.829 13.837-23.039 10.32l-14.461-5.538" style="stroke-width:15;stroke-linecap:round;stroke-linejoin:round;stroke-miterlimit:10;" fill="none" stroke="#23577c" stroke-width="15" stroke-linecap="round" stroke-linejoin="round" stroke-miterlimit="10" data-original="#000000" class="" opacity="1"></path><path d="m249.336 369.4 93.538 35.8c9.219 3.517 13.837 13.837 10.32 23.048-2.72 7.116-9.498 11.495-16.696 11.495-2.112 0-4.256-.378-6.351-1.175l-14.972-5.716" style="stroke-width:15;stroke-linecap:round;stroke-linejoin:round;stroke-miterlimit:10;" fill="none" stroke="#23577c" stroke-width="15" stroke-linecap="round" stroke-linejoin="round" stroke-miterlimit="10" data-original="#000000" class="" opacity="1"></path><path d="m262.067 336.037 93.538 35.802c9.213 3.515 13.832 13.833 10.317 23.046v0c-3.515 9.213-13.833 13.832-23.046 10.317L249.339 369.4" style="stroke-width:15;stroke-linecap:round;stroke-linejoin:round;stroke-miterlimit:10;" fill="none" stroke="#23577c" stroke-width="15" stroke-linecap="round" stroke-linejoin="round" stroke-miterlimit="10" data-original="#000000" class="" opacity="1"></path><path d="m274.796 302.675 80.272 30.741c9.213 3.515 13.832 13.833 10.317 23.046h0c-3.515 9.213-13.833 13.832-23.046 10.317l-80.272-30.741M495.7 345.147l-62.121 34.298c-8.232 4.545-18.589 1.556-23.134-6.676L337.043 239.82c-4.545-8.232-1.556-18.589 6.676-23.134l62.121-34.298c8.232-4.545 18.589-1.556 23.134 6.676l73.402 132.949c4.545 8.232 1.556 18.589-6.676 23.134zM60.106 230.578 9.624 322.013c-4.545 8.232-1.556 18.589 6.676 23.134l62.121 34.298c8.232 4.545 18.589 1.556 23.134-6.676l73.403-132.949c4.545-8.232 1.556-18.589-6.676-23.134l-62.121-34.298c-8.232-4.545-18.589-1.556-23.134 6.676l-5.701 10.326M278.917 43.553c30.585 7.77 53.276 35.538 53.276 68.505 0 38.969-31.703 70.672-70.672 70.672s-70.672-31.703-70.672-70.672c0-32.838 22.514-60.518 52.917-68.413" style="stroke-width:15;stroke-linecap:round;stroke-linejoin:round;stroke-miterlimit:10;" fill="none" stroke="#23577c" stroke-width="15" stroke-linecap="round" stroke-linejoin="round" stroke-miterlimit="10" data-original="#000000" class="" opacity="1"></path><path d="M273.884 86.867s-6.467-5.965-16.435-2.962c-9.153 2.757-11.426 15.28-5.206 20.159 3.571 2.801 8.945 5.104 16.187 7.664 16.209 5.73 10.217 28.589-6.271 28.698-6.434.043-9.443-.366-15.095-4.063M262.162 148.773v-8.349M262.162 83.079v-7.734" style="stroke-width:15;stroke-linecap:round;stroke-linejoin:round;stroke-miterlimit:10;" fill="none" stroke="#23577c" stroke-width="15" stroke-linecap="round" stroke-linejoin="round" stroke-miterlimit="10" data-original="#000000" class="" opacity="1"></path></g></svg>