<svg xmlns="http://www.w3.org/2000/svg" version="1.1" xmlns:xlink="http://www.w3.org/1999/xlink" width="512" height="512" x="0" y="0" viewBox="0 0 60 60" style="enable-background:new 0 0 512 512" xml:space="preserve" class=""><g><path fill="#197aa5" d="M43 9.5H17c-6.07 0-11 4.93-11 11v12c0 5.73 4.4 10.45 10 10.96v6.04c0 .38.22.73.56.9.14.07.29.1.44.1.22 0 .44-.07.61-.21l8.73-6.79H43c6.07 0 11-4.93 11-11v-12c0-6.07-4.93-11-11-11zm-3.93 26.24c-2.45 2.45-5.71 3.8-9.19 3.8s-6.74-1.35-9.19-3.8-3.8-5.71-3.8-9.19 1.35-6.74 3.8-9.19 5.71-3.81 9.19-3.81 6.74 1.36 9.19 3.81 3.81 5.71 3.81 9.19-1.36 6.74-3.81 9.19z" opacity="1" data-original="#2b79c3" class=""></path><path fill="#3c99c3" d="M37.66 18.77c-4.29-4.29-11.27-4.29-15.56 0s-4.29 11.27 0 15.56c2.14 2.14 4.96 3.22 7.78 3.22s5.63-1.07 7.78-3.22c4.29-4.29 4.29-11.27 0-15.56zm-14.14 1.42a8.98 8.98 0 0 1 6.36-2.63c1.99 0 3.98.66 5.62 1.97L22.85 32.16c-2.82-3.53-2.6-8.7.67-11.97zm12.72 12.72c-3.27 3.27-8.45 3.49-11.98.67L36.9 20.94c2.83 3.52 2.61 8.7-.66 11.97z" opacity="1" data-original="#40444f" class=""></path></g></svg>