<svg xmlns="http://www.w3.org/2000/svg" version="1.1" xmlns:xlink="http://www.w3.org/1999/xlink" width="512" height="512" x="0" y="0" viewBox="0 0 64 64" style="enable-background:new 0 0 512 512" xml:space="preserve" class=""><g><g data-name="Artboard 01"><path fill="#5795b7" d="M56 23h6v4h-6z" opacity="1" data-original="#66a4ff" class=""></path><path fill="#367099" d="M56 23h6v1.408h-6z" opacity="1" data-original="#598ede" class=""></path><path fill="#b8b8bb" d="M62 11a1 1 0 0 1-1-1V4a1 1 0 0 0-2 0v1a1 1 0 0 1-2 0V4a3 3 0 0 1 6 0v6a1 1 0 0 1-1 1z" opacity="1" data-original="#b8b8bb" class=""></path><path fill="#5795b7" d="M58 11a1 1 0 0 1-1-1V8a1 1 0 0 1 2 0v2a1 1 0 0 1-1 1z" opacity="1" data-original="#66a4ff" class=""></path><path fill="#367099" d="M42 56h13v6h4v-7a3 3 0 0 0-3-3H42z" opacity="1" data-original="#598ede" class=""></path><path fill="#b8b8bb" d="M2 62V46a6 6 0 0 1 4.235-5.735L17 37h10l10.765 3.265A6 6 0 0 1 42 46v16z" opacity="1" data-original="#b8b8bb" class=""></path><path fill="#d4d4d6" d="M19.783 44.8h8.869v-7.3L27 37H17l-.68.206a1.256 1.256 0 0 0-.891 1.2v2.044a4.353 4.353 0 0 0 4.354 4.35z" opacity="1" data-original="#d4d4d6" class=""></path><path fill="#8a8a8c" d="m11 38.82-1.348.409v8.655H11z" opacity="1" data-original="#8a8a8c" class=""></path><path fill="#23557c" d="M11 11V6a4 4 0 0 1 4-4h14a4 4 0 0 1 4 4v5z" opacity="1" data-original="#446aa9" class=""></path><path fill="#598ede50" d="M29 2H15a3.969 3.969 0 0 0-1.739.413V3.44a5.788 5.788 0 0 0 5.788 5.788h12.005A1.945 1.945 0 0 0 33 7.283V6a4 4 0 0 0-4-4z" opacity="1" data-original="#598ede50" class=""></path><path fill="#f2b9a1" d="M34.542 14.308A4 4 0 0 1 37 18a4 4 0 0 1-4 4H11a4 4 0 0 1-4-4 4 4 0 0 1 2.443-3.686zM17 32.8V37a9.716 9.716 0 0 0 10 0v-4.2z" opacity="1" data-original="#f2b9a1" class=""></path><path fill="#f4c8ad" d="M33 13v10a11 11 0 0 1-11 11 11 11 0 0 1-11-11V13z" opacity="1" data-original="#f4c8ad" class=""></path><path fill="#f2b9a1" d="M35 58h7v3h-7zM2 58h7v3H2z" opacity="1" data-original="#f2b9a1" class=""></path><path fill="#23557c" d="M35 62V49a2 2 0 0 0-2-2H11a2 2 0 0 0-2 2v13z" opacity="1" data-original="#446aa9" class=""></path><path fill="#367099" d="M22 9.546a52.809 52.809 0 0 1 11.527 1.617A1.936 1.936 0 0 1 35 13.051a1.941 1.941 0 0 1-2.372 1.9A50.911 50.911 0 0 0 22 13.546a50.911 50.911 0 0 0-10.628 1.4A1.941 1.941 0 0 1 9 13.051a1.936 1.936 0 0 1 1.473-1.888A52.809 52.809 0 0 1 22 9.546z" opacity="1" data-original="#598ede" class=""></path><path fill="#f8992f" d="M19 9.69V7a1 1 0 0 1 1-1h4a1 1 0 0 1 1 1v2.69z" opacity="1" data-original="#f4ac1c" class=""></path><path fill="#214a61" d="M32 52.62h-2a1 1 0 0 1 0-2h2a1 1 0 0 1 0 2zM14 52.62h-2a1 1 0 0 1 0-2h2a1 1 0 1 1 0 2z" opacity="1" data-original="#355485" class=""></path><path fill="#f8992f" d="M32 52h-2a1 1 0 0 1 0-2h2a1 1 0 0 1 0 2zM14 52h-2a1 1 0 0 1 0-2h2a1 1 0 0 1 0 2z" opacity="1" data-original="#f4ac1c" class=""></path><path fill="#367099" d="M14 37.91V47h-3v-8.18zM30 37.91V47h3v-8.18zM14 62v-8h16v8z" opacity="1" data-original="#598ede" class=""></path><path fill="#eaebef" d="M55 14H44a2 2 0 0 1-2-2 2 2 0 0 1 2-2h19v4z" opacity="1" data-original="#eaebef" class=""></path><path fill="#d4d4d6" d="M45 14v2.085a6.915 6.915 0 0 0 3.357 5.929 6.916 6.916 0 0 0 3.558.986H63v-9z" opacity="1" data-original="#d4d4d6" class=""></path><path fill="#367099" d="M57 32v-5h4v16a3 3 0 0 1-3 3h-5v-4h4z" opacity="1" data-original="#598ede" class=""></path><rect width="5" height="8" x="48" y="40" fill="#5795b7" rx="1" opacity="1" data-original="#66a4ff" class=""></rect><path fill="#367099" d="M42 46h6v-4h-7.53z" opacity="1" data-original="#598ede" class=""></path><circle cx="44" cy="27" r="3" fill="#96d0bc" opacity="1" data-original="#46cff9" class=""></circle><path fill="#96d0bc" d="M44 24a2.969 2.969 0 0 0-1.829.638 2.988 2.988 0 0 0 4.343 3.99A2.993 2.993 0 0 0 44 24z" opacity="1" data-original="#76d8ff" class=""></path><ellipse cx="44.342" cy="25.464" fill="#c8efff" rx="1.313" ry=".965" opacity="1" data-original="#c8efff" class=""></ellipse><circle cx="39" cy="34" r="2" fill="#96d0bc" opacity="1" data-original="#46cff9" class=""></circle><path fill="#96d0bc" d="M39 32a1.987 1.987 0 0 0-1.337.522 1.993 1.993 0 0 0 3.163 2.288A2 2 0 0 0 39 32z" opacity="1" data-original="#76d8ff" class=""></path><ellipse cx="39.178" cy="33.042" fill="#c8efff" rx=".879" ry=".75" opacity="1" data-original="#c8efff" class=""></ellipse><circle cx="4" cy="27" r="2" fill="#96d0bc" opacity="1" data-original="#46cff9" class=""></circle><path fill="#96d0bc" d="M4 25a1.988 1.988 0 0 0-1.55.75 1.973 1.973 0 0 0-.083.541 1.992 1.992 0 0 0 3.55 1.25A1.973 1.973 0 0 0 6 27a2 2 0 0 0-2-2z" opacity="1" data-original="#76d8ff" class=""></path><ellipse cx="4.183" cy="25.965" fill="#c8efff" rx=".879" ry=".75" opacity="1" data-original="#c8efff" class=""></ellipse><path fill="#5795b7" d="M14.063 10.389a2.794 2.794 0 0 0 .378 3.934A43.948 43.948 0 0 1 22 13.546a45.071 45.071 0 0 1 8.065.87 2.809 2.809 0 0 0 .608-3.885A46.556 46.556 0 0 0 22 9.546a44.965 44.965 0 0 0-7.937.843z" opacity="1" data-original="#66a4ff" class=""></path><path fill="#ffb239" d="M24 6h-4c-.019 0-.035.01-.054.011V7.06a1.842 1.842 0 0 0 1.842 1.84H25V7a1 1 0 0 0-1-1z" opacity="1" data-original="#ffc239" class=""></path><rect width="8.152" height="2.011" x="16.057" y="2" fill="#5795b7" rx="1.005" opacity="1" data-original="#66a4ff" class=""></rect><rect width="5.082" height="2.011" x="24.788" y="2" fill="#5795b7" rx="1.005" opacity="1" data-original="#66a4ff" class=""></rect><rect width="2.095" height="1.993" x="29.905" y="50.007" fill="#ffb239" rx=".548" opacity="1" data-original="#ffc239" class=""></rect><rect width="2.095" height="1.993" x="11.905" y="50.007" fill="#ffb239" rx=".548" opacity="1" data-original="#ffc239" class=""></rect><path fill="#214a61" d="M14 54v8h-1v-7a1 1 0 0 1 1-1z" opacity="1" data-original="#355485" class=""></path><path fill="#214a61" d="M62 63H2a1 1 0 0 1 0-2h60a1 1 0 0 1 0 2z" opacity="1" data-original="#355485" class=""></path><path fill="#8a8a8c" d="m30 37.91-1.348-.409V47H30z" opacity="1" data-original="#8a8a8c" class=""></path><path fill="#d4d4d6" d="M4.44 57a3.6 3.6 0 0 0 3.6-3.6V41.606a1.4 1.4 0 0 0-1.808-1.341A6 6 0 0 0 2 46v11zM33 44.609h.886a2.69 2.69 0 0 1 2.69 2.69v6.456a2.952 2.952 0 0 0 2.951 2.952H42V46a6 6 0 0 0-4.235-5.735L33 38.82z" opacity="1" data-original="#d4d4d6" class=""></path><path fill="#f4c8ad" d="M36.658 58H42v3h-3.6a1.739 1.739 0 0 1-1.739-1.739V58h-.003zM5.603 61h-3.6v-3h5.339v1.261A1.739 1.739 0 0 1 5.603 61z" opacity="1" data-original="#f4c8ad" class=""></path><g fill="#66a4ff"><rect width="9.424" height="4" x="44.076" y="52" rx="1.261" fill="#5795b7" opacity="1" data-original="#66a4ff" class=""></rect><rect width="4.859" height="4" x="42.56" y="42" rx="1.027" fill="#5795b7" opacity="1" data-original="#66a4ff" class=""></rect><rect width="4" height="9.783" x="57" y="30.571" rx="2" fill="#5795b7" opacity="1" data-original="#66a4ff" class=""></rect></g><rect width="13" height="4" x="47" y="10" fill="#f6f6fd" rx="2" opacity="1" data-original="#fbfbfc" class=""></rect></g></g></svg>