<svg xmlns="http://www.w3.org/2000/svg" version="1.1" xmlns:xlink="http://www.w3.org/1999/xlink" width="512" height="512" x="0" y="0" viewBox="0 0 512 512" style="enable-background:new 0 0 512 512" xml:space="preserve" class=""><g><path d="M324.267 486.4H85.333L51.2 221.867h307.2zM25.6 187.733H384v34.133H25.6z" style="" fill="#47b1c9" data-original="#4398d1" class="" opacity="1"></path><path d="M51.2 221.867 55.603 256h298.394l4.403-34.133z" style="" fill="#3c7ba3" data-original="#398cc4" class="" opacity="1"></path><path d="M187.733 187.733H68.267v-76.8L102.4 68.267h51.2l34.133 42.666z" style="" fill="#726891" data-original="#726891" class=""></path><path d="M102.4 8.533h51.2v59.733h-51.2z" style="" fill="#f8992f" data-original="#e8594a" class="" opacity="1"></path><path d="M68.267 110.933h119.467v76.8H68.267z" style="" fill="#7a709c" data-original="#7a709c" class=""></path><path d="M323.902 37.049h17.066v77.992h-17.066z" style="" transform="scale(-1) rotate(-26.527 -322.628 1410.377)" fill="#f8992f" data-original="#e66712" class="" opacity="1"></path><path d="M341.333 8.533h34.133v34.133h-34.133z" style="" fill="#f8992f" data-original="#f77219" class="" opacity="1"></path><path d="M298.667 76.8h-76.8c0-37.7 30.566-68.267 68.267-68.267h51.2v34.133L298.667 76.8z" style="" fill="#f8992f" data-original="#f77219" class="" opacity="1"></path><path d="M247.467 76.8h51.2v34.133h-51.2z" style="" fill="#d4d4d4" data-original="#d4d4d4" class=""></path><path d="M247.467 110.933h51.2l42.666 42.667v34.133H221.867v-51.2z" style="" fill="#ebebeb" data-original="#ebebeb" class=""></path><path d="M443.733 366.933H430.37a51.94 51.94 0 0 0-23.185 5.47 51.797 51.797 0 0 1-46.37 0 51.953 51.953 0 0 0-23.185-5.47h-13.363c-23.561 0-42.667 19.106-42.667 42.667v51.2c0 23.561 19.106 42.667 42.667 42.667h13.363a51.94 51.94 0 0 0 23.185-5.47 51.797 51.797 0 0 1 46.37 0 51.94 51.94 0 0 0 23.185 5.47h13.363c23.561 0 42.667-19.106 42.667-42.667v-51.2c0-23.561-19.106-42.667-42.667-42.667z" style="" fill="#f5a338" data-original="#f5a338" class=""></path><path d="M443.733 452.267H430.37a51.94 51.94 0 0 1-23.185-5.47 51.797 51.797 0 0 0-46.37 0 51.953 51.953 0 0 1-23.185 5.47h-13.363c-23.561 0-42.667-19.106-42.667-42.667s19.106-42.667 42.667-42.667h13.363a51.94 51.94 0 0 1 23.185 5.47 51.797 51.797 0 0 0 46.37 0 51.953 51.953 0 0 1 23.185-5.47h13.363c23.561 0 42.667 19.106 42.667 42.667s-19.106 42.667-42.667 42.667z" style="" fill="#f9b44d" data-original="#f9b44d" class=""></path><path d="M435.2 392.533h17.067V409.6H435.2zM349.867 392.533h17.067V409.6h-17.067zM315.733 401.067H332.8v17.067h-17.067zM401.067 401.067h17.067v17.067h-17.067z" style="" fill="#f5a338" data-original="#f5a338" class=""></path><path d="M247.467 256v-68.267H110.933V384c0 14.14 11.46 25.6 25.6 25.6h85.333c14.14 0 25.6-11.46 25.6-25.6v-85.333l34.645 17.323c9.139 4.574 20.25.87 24.823-8.26 0-.009.009-.009.009-.017l.213-.427c4.779-9.378 1.041-20.855-8.329-25.626-.034-.017-.077-.043-.119-.06L247.467 256z" style="" fill="#98d0bd" data-original="#97d3e6" class="" opacity="1"></path><path d="M298.709 281.6 247.467 256v-68.267h-6.468c-30.976 101.845-85.333 164.087-129.707 200.03 1.835 12.535 12.578 21.828 25.242 21.837h85.333c14.14 0 25.6-11.46 25.6-25.6v-85.333l34.645 17.323c9.139 4.574 20.25.87 24.823-8.26 0-.009.009-.009.009-.017l.213-.427c4.779-9.378 1.041-20.855-8.329-25.626-.042-.017-.076-.043-.119-.06z" style="" fill="#98d0bd" data-original="#8ac9de" class="" opacity="1"></path><path d="M136.533 324.267H153.6V409.6h-17.067zM170.667 324.267h17.067V409.6h-17.067zM204.8 324.267h17.067V409.6H204.8z" style="" fill="#98d0bd" data-original="#7dbdd1" class="" opacity="1"></path><path d="M25.6 230.4h18.099l33.169 257.092a8.53 8.53 0 0 0 8.465 7.441h200.875A51.048 51.048 0 0 0 324.267 512h13.363a60.655 60.655 0 0 0 26.999-6.374 43.505 43.505 0 0 1 38.741 0A60.645 60.645 0 0 0 430.369 512h13.363c28.262-.026 51.174-22.938 51.2-51.2v-51.2c-.026-28.262-22.938-51.174-51.2-51.2H430.37a60.655 60.655 0 0 0-26.999 6.374 43.505 43.505 0 0 1-38.741 0 60.252 60.252 0 0 0-15.36-5.12L365.901 230.4H384a8.536 8.536 0 0 0 8.533-8.533v-34.133a8.536 8.536 0 0 0-8.533-8.533h-34.133v-25.6a8.513 8.513 0 0 0-2.5-6.033L307.2 107.401V80.896l12.937-10.342 22.093 44.194 15.275-7.629-23.74-47.471L344.32 51.2h31.147A8.536 8.536 0 0 0 384 42.667V8.533A8.536 8.536 0 0 0 375.467 0h-85.333c-42.394.051-76.749 34.406-76.8 76.8a8.536 8.536 0 0 0 8.533 8.533h17.067V107.4l-23.1 23.1a8.513 8.513 0 0 0-2.5 6.033V179.2h-17.067v-68.267a8.487 8.487 0 0 0-.623-3.081 8.18 8.18 0 0 0-.529-.964 9.562 9.562 0 0 0-.717-1.289l-32.265-40.32V8.533A8.536 8.536 0 0 0 153.6 0h-51.2a8.536 8.536 0 0 0-8.533 8.533V65.28L61.602 105.6c-.273.41-.512.845-.717 1.289a8.18 8.18 0 0 0-.529.964 8.479 8.479 0 0 0-.623 3.081V179.2H25.6a8.536 8.536 0 0 0-8.533 8.533v34.133c0 4.711 3.823 8.534 8.533 8.534zm418.133 264.533H430.37a43.568 43.568 0 0 1-19.362-4.574 60.673 60.673 0 0 0-54.016 0 43.568 43.568 0 0 1-19.362 4.574h-13.363c-18.85 0-34.133-15.283-34.133-34.133v-13.141a50.915 50.915 0 0 0 34.133 13.141h13.363a60.655 60.655 0 0 0 26.999-6.374 43.505 43.505 0 0 1 38.741 0 60.645 60.645 0 0 0 26.999 6.374h13.363a50.92 50.92 0 0 0 34.133-13.141V460.8c.002 18.85-15.282 34.133-34.132 34.133zm-32.725-114.892a43.568 43.568 0 0 1 19.362-4.574h13.363c18.85 0 34.133 15.283 34.133 34.133s-15.283 34.133-34.133 34.133H430.37a43.568 43.568 0 0 1-19.362-4.574 60.673 60.673 0 0 0-54.016 0 43.568 43.568 0 0 1-19.362 4.574h-13.363c-18.85 0-34.133-15.283-34.133-34.133s15.283-34.133 34.133-34.133h13.363a43.568 43.568 0 0 1 19.362 4.574 60.73 60.73 0 0 0 54.016 0zM332.177 358.4h-7.91c-28.262.026-51.174 22.938-51.2 51.2v51.2a51.021 51.021 0 0 0 2.987 17.067H92.834L60.902 230.4H102.4V384c0 18.85 15.283 34.133 34.133 34.133h85.333C240.717 418.133 256 402.85 256 384v-71.526l22.289 11.145c13.466 6.647 29.773 1.118 36.42-12.348a27.648 27.648 0 0 0 1.647-21.291 27.305 27.305 0 0 0-13.824-15.991L256 250.726V230.4h92.698l-16.521 128zm-110.31-162.133h17.067V256a8.526 8.526 0 0 0 4.719 7.68l51.2 25.6a10.313 10.313 0 0 1 5.248 6.067c.887 2.842.58 5.922-.853 8.533-2.458 4.924-8.439 6.929-13.363 4.471-.009 0-.017-.009-.026-.009l-34.645-17.323c-4.233-2.065-9.344-.316-11.409 3.917a8.452 8.452 0 0 0-.87 3.729V384c0 9.429-7.637 17.067-17.067 17.067v-76.8H204.8v76.8h-17.067v-76.8h-17.067v76.8H153.6v-76.8h-17.067v76.8c-9.429 0-17.067-7.637-17.067-17.067V196.267h102.401zm153.6 17.066H256v-17.067h119.467v17.067zm-8.534-179.2h-17.067V17.067h17.067v17.066zm-76.8-17.066H332.8v21.504l-37.129 29.696h-64.666c4.285-29.372 29.449-51.166 59.128-51.2zm0 68.266V102.4H256V85.333h34.133zM230.4 140.066l20.599-20.599h44.134l37.666 37.666V179.2H230.4v-39.134zM106.496 76.8h43.008l20.48 25.6H86.016l20.48-25.6zm4.437-59.733h34.133v42.667h-34.133V17.067zM76.8 119.467h102.4V179.2H76.8v-59.733zm-42.667 76.8H102.4v17.067H34.133v-17.067z" fill="#23577c" opacity="1" data-original="#000000" class=""></path><path d="M435.2 392.533h17.067V409.6H435.2zM349.867 392.533h17.067V409.6h-17.067zM315.733 401.067H332.8v17.067h-17.067zM401.067 401.067h17.067v17.067h-17.067z" fill="#23577c" opacity="1" data-original="#000000" class=""></path></g></svg>