<svg xmlns="http://www.w3.org/2000/svg" version="1.1" xmlns:xlink="http://www.w3.org/1999/xlink" width="512" height="512" x="0" y="0" viewBox="0 0 64 64" style="enable-background:new 0 0 512 512" xml:space="preserve" class=""><g><path fill="#9b6621" d="m20 39-8.982 2a6.308 6.308 0 0 0-4.7 5.084L2 62h45l-3.319-15.916A6.308 6.308 0 0 0 38.982 41L30 39z" opacity="1" data-original="#9b6621" class=""></path><path fill="#ff9941" d="M43.681 46.084A6.308 6.308 0 0 0 38.982 41L30 39H20l-8.982 2a6.282 6.282 0 0 0-1.807.772 6.288 6.288 0 0 0-.892 2.312A12.613 12.613 0 0 0 20.492 60h26.091z" opacity="1" data-original="#fbb03b" class=""></path><path fill="#eaa496" d="M17 28h-1.5a2.5 2.5 0 0 1-2.5-2.5 2.5 2.5 0 0 1 2.5-2.5H17M33 28h1.5a2.5 2.5 0 0 0 2.5-2.5 2.5 2.5 0 0 0-2.5-2.5H33" opacity="1" data-original="#eaa496" class=""></path><path fill="#ff9941" d="M16 20a7 7 0 0 1 6.991-7H26.5c4.4.03 7.5 3.149 7.5 6.992V20z" opacity="1" data-original="#fbb03b" class=""></path><path fill="#ffaf3e" d="M23.5 13h-.509a6.992 6.992 0 0 0-6.912 6h17.842c-.484-3.372-3.407-5.972-7.421-6zM15 20h20v3H15z" opacity="1" data-original="#f9d023" class=""></path><g fill="#fbb03b"><path d="M26 14.999 24 15l-1-4h4zM16.29 13.707l1.413-1.414 3 3-1.414 1.414zM29.288 15.295l3-3 1.414 1.414-3 3z" fill="#ff9941" opacity="1" data-original="#fbb03b" class=""></path></g><path fill="#eeb8ab" d="M20 34.244v4.52a5 5 0 0 0 5 5 5 5 0 0 0 5-5v-4.521z" opacity="1" data-original="#eeb8ab"></path><path fill="#eeb8ab" d="M33 23v5a8 8 0 0 1-8 8 8 8 0 0 1-8-8v-5z" opacity="1" data-original="#eeb8ab"></path><path fill="#f3f3f3" d="M25 36a8 8 0 0 0 8-8v-4H17v4a8 8 0 0 0 8 8z" opacity="1" data-original="#ffe1d3" class=""></path><path fill="#114996" d="M16 62v-5l5-2h8l5 2v5z" opacity="1" data-original="#114996" class=""></path><path fill="#ffaf3e" d="M62 38H52v4a5 5 0 0 0 5 5 5 5 0 0 0 5-5z" opacity="1" data-original="#f9d023" class=""></path><path fill="#4d4d4d" d="M60 32h2v6h-2zM56 32h2v6h-2z" opacity="1" data-original="#4d4d4d" class=""></path><path fill="#ffaf3e" d="M53.999 2 40 12l11 6-5 11 16-13.001L50.999 12z" opacity="1" data-original="#f9d023" class=""></path><path fill="#f3f3f3" d="M20 38.764a5 5 0 0 0 5 5 5 5 0 0 0 5-5V37H20z" opacity="1" data-original="#ffe1d3" class=""></path><path fill="#1861b7" d="M16 59.176a12.577 12.577 0 0 0 4.492.824H34v-3l-5-2h-8l-5 2z" opacity="1" data-original="#1861b7" class=""></path><path fill="#ff9941" d="M56 17 46 29l16-13.001L50.999 12l3-10L46 12zM57 47a5 5 0 0 0 5-5v-4h-5" opacity="1" data-original="#fbb03b" class=""></path><path fill="#e5c47a" d="M38 40.78V62h-4v-5l-5-2h-8l-5 2v5h-4V40.78l4-.89V51h18V39.89z" opacity="1" data-original="#e5c47a" class=""></path><path fill="#e3ffe9" d="M38 60V40.781l-4-.89V51H16V39.891l-4 .89v15.91a12.5 12.5 0 0 0 4 2.485V57l5-2h8l5 2v3z" opacity="1" data-original="#ffdb80" class=""></path><path d="M62 37v-5h-2v5h-2v-5h-2v5h-2v-5h-2v5a1 1 0 0 0-1 1v4a6 6 0 0 0 5 5.909v1.163A7 7 0 0 0 57 63v-2a5 5 0 0 1 0-10 1 1 0 0 0 1-1v-2.092A6 6 0 0 0 63 42v-4a1 1 0 0 0-1-1zm-1 5a4 4 0 0 1-8 0v-3h8zM62.986 15.833a1 1 0 0 0-.644-.773l-10.113-3.677 2.729-9.1a1 1 0 0 0-1.54-1.1l-14 10a1 1 0 0 0 .1 1.691l10.184 5.555-4.612 10.157a1 1 0 0 0 1.54 1.19l16-13a1 1 0 0 0 .356-.943zM48.67 25.542l3.24-7.128a1 1 0 0 0-.431-1.292l-9.6-5.236L52.2 4.513l-2.16 7.2a1 1 0 0 0 .616 1.227L60 16.336zM10.776 40.03a7.256 7.256 0 0 0-5.422 5.792L1.035 61.738A1 1 0 0 0 2 63h45a1 1 0 0 0 .979-1.2l-3.312-15.881a7.31 7.31 0 0 0-5.467-5.895L31 38.2v-3.51A8.974 8.974 0 0 0 33.94 29h.56a3.492 3.492 0 0 0 1.5-6.649V20a1 1 0 0 0-1-1h-.066a7.644 7.644 0 0 0-2.1-4.416l.877-.877-1.414-1.414-1.031 1.027a8.9 8.9 0 0 0-3.509-1.22l.213-.853A1 1 0 0 0 27 10h-4a1 1 0 0 0-.97 1.243l.2.8a7.923 7.923 0 0 0-3.543 1.232l-.979-.978-1.414 1.414.855.855A7.967 7.967 0 0 0 15.069 19H15a1 1 0 0 0-1 1v2.351A3.492 3.492 0 0 0 15.5 29h.559A8.978 8.978 0 0 0 19 34.688V38.2zM25 44.764a6 6 0 0 0 5.817-4.558l2.183.486V50H17v-9.308l2.183-.486A6 6 0 0 0 25 44.764zM37 61h-2v-4a1 1 0 0 0-.628-.929l-5-2A1.012 1.012 0 0 0 29 54h-8a1.012 1.012 0 0 0-.372.071l-5 2A1 1 0 0 0 15 57v4h-2V41.583l2-.445V51a1 1 0 0 0 1 1h18a1 1 0 0 0 1-1v-9.862l2 .445zm-4 0H17v-3.323L21.192 56h7.616L33 57.677zM7.306 46.249A5.287 5.287 0 0 1 11 42.054V61H3.307zm35.4.039L45.77 61H39V42.055a5.315 5.315 0 0 1 3.7 4.233zM16 22v-1h18v1zm18.5 5H34v-3h.5a1.5 1.5 0 0 1 0 3zm-8.781-15-.5 2h-.438l-.5-2zm-7.158 3.975.732.732 1.414-1.414-.568-.568a5.926 5.926 0 0 1 2.584-.711l.307 1.229A1 1 0 0 0 24 16h2a1 1 0 0 0 .97-.758l.3-1.2a7.043 7.043 0 0 1 2.52.75l-.5.5 1.414 1.414.7-.7A5.692 5.692 0 0 1 32.909 19H17.09a5.969 5.969 0 0 1 1.471-3.025zM14 25.5a1.5 1.5 0 0 1 1.5-1.5h.5v3h-.5a1.5 1.5 0 0 1-1.5-1.5zm4 2.5v-4h14v4a7 7 0 0 1-14 0zm7 9a8.934 8.934 0 0 0 4-.951v2.715a4 4 0 0 1-8 0V36.05a8.934 8.934 0 0 0 4 .95z" fill="#23577c" opacity="1" data-original="#000000" class=""></path></g></svg>