<svg width="892" height="416" viewBox="0 0 892 416" fill="none" xmlns="http://www.w3.org/2000/svg">
<g filter="url(#filter0_d_18_50)">
<circle cx="418" cy="358" r="50" fill="#E3FFE9"/>
</g>
<g filter="url(#filter1_d_18_50)">
<circle cx="54" cy="50" r="50" fill="#E3FFE9"/>
</g>
<g filter="url(#filter2_d_18_50)">
<circle cx="838" cy="150" r="50" fill="#E3FFE9"/>
</g>
<path d="M42.44 70.36C40.7333 70.36 39.88 69.272 39.88 67.096C39.88 66.0293 40.2427 65.2613 40.968 64.792C41.736 64.3227 42.5893 64.024 43.528 63.896C44.5093 63.7253 45.3413 63.5973 46.024 63.512C46.792 63.3413 47.176 63.1707 47.176 63L48.776 40.6V39.192C48.0933 39.2347 47.4533 39.448 46.856 39.832C46.3013 40.216 45.6613 40.408 44.936 40.408C44.168 40.408 43.4427 40.1307 42.76 39.576C42.12 38.9787 41.8 38.2747 41.8 37.464C41.8 36.3973 42.0987 35.48 42.696 34.712C43.336 33.9013 44.0613 33.176 44.872 32.536C45.7253 31.896 46.4933 31.2987 47.176 30.744C47.8587 30.1893 48.4987 29.5707 49.096 28.888C49.6933 28.2053 50.3333 27.608 51.016 27.096C51.7413 26.584 52.5733 26.328 53.512 26.328C53.9813 26.328 54.4507 26.3493 54.92 26.392C55.3893 26.392 55.7947 26.5413 56.136 26.84C56.4773 27.096 56.648 27.608 56.648 28.376V32.408L54.472 52.632V61.592C55.624 61.5067 56.6053 61.4 57.416 61.272C58.2267 61.1013 59.0373 61.016 59.848 61.016C60.7867 61.016 61.5333 61.2507 62.088 61.72C62.6853 62.1893 62.984 62.936 62.984 63.96C62.984 65.112 62.6853 65.9653 62.088 66.52C61.5333 67.032 60.7867 67.352 59.848 67.48C59.208 67.5653 58.12 67.7573 56.584 68.056C55.0907 68.312 53.448 68.6107 51.656 68.952C49.9067 69.2507 48.264 69.5493 46.728 69.848C45.192 70.104 44.0613 70.2747 43.336 70.36H42.44Z" fill="#23577C"/>
<path d="M407.976 376.76C406.739 376.76 405.843 376.504 405.288 375.992C404.733 375.437 404.456 374.52 404.456 373.24C404.456 370.808 405.139 368.525 406.504 366.392C407.869 364.259 409.405 362.381 411.112 360.76C411.496 360.504 412.115 360.056 412.968 359.416C413.864 358.733 414.803 358.008 415.784 357.24C416.808 356.472 417.725 355.789 418.536 355.192C419.389 354.552 419.965 354.104 420.264 353.848C421.715 352.739 422.909 351.523 423.848 350.2C424.787 348.877 425.256 347.299 425.256 345.464C425.256 344.056 424.787 342.84 423.848 341.816C422.909 340.749 421.736 340.216 420.328 340.216C418.621 340.216 417.192 340.536 416.04 341.176C414.888 341.816 413.885 342.563 413.032 343.416C412.179 344.227 411.304 344.952 410.408 345.592C409.555 346.232 408.552 346.552 407.4 346.552C406.632 346.552 406.056 346.232 405.672 345.592C405.288 344.952 405.096 344.269 405.096 343.544C405.096 341.923 405.672 340.493 406.824 339.256C407.976 338.019 409.405 336.952 411.112 336.056C412.819 335.16 414.525 334.499 416.232 334.072C417.981 333.603 419.432 333.368 420.584 333.368C422.931 333.368 425 333.944 426.792 335.096C428.627 336.205 430.056 337.699 431.08 339.576C432.147 341.453 432.68 343.523 432.68 345.784C432.68 347.747 432.253 349.603 431.4 351.352C430.589 353.059 429.501 354.659 428.136 356.152C426.771 357.645 425.277 359.053 423.656 360.376C422.035 361.656 420.435 362.851 418.856 363.96C417.277 365.027 415.869 366.051 414.632 367.032L412.648 368.952H413.352C415.229 368.952 417.064 368.803 418.856 368.504C420.648 368.163 422.504 367.992 424.424 367.992C425.192 367.992 426.152 368.013 427.304 368.056C428.456 368.056 429.608 368.184 430.76 368.44C431.912 368.653 432.872 369.059 433.64 369.656C434.451 370.253 434.856 371.128 434.856 372.28C434.856 373.389 434.536 374.2 433.896 374.712C433.299 375.224 432.445 375.48 431.336 375.48C430.056 375.48 428.776 375.373 427.496 375.16C426.259 374.947 424.915 374.84 423.464 374.84H420.904L409.576 376.76H407.976Z" fill="#23577C"/>
<path d="M837.192 173.36C836.253 173.36 835.037 173.211 833.544 172.912C832.093 172.571 830.621 172.101 829.128 171.504C827.635 170.864 826.376 170.096 825.352 169.2C824.371 168.261 823.88 167.195 823.88 166C823.88 165.147 824.221 164.443 824.904 163.888C825.587 163.333 826.333 163.056 827.144 163.056C827.997 163.056 828.851 163.312 829.704 163.824C830.6 164.336 831.539 164.869 832.52 165.424C833.544 165.936 834.675 166.192 835.912 166.192C837.747 166.192 839.603 165.915 841.48 165.36C843.357 164.805 844.936 163.973 846.216 162.864C847.496 161.755 848.136 160.389 848.136 158.768C848.136 157.232 847.688 155.973 846.792 154.992C845.896 154.011 844.744 153.243 843.336 152.688C841.971 152.133 840.52 151.749 838.984 151.536C837.491 151.28 836.104 151.109 834.824 151.024C834.312 150.469 833.992 149.957 833.864 149.488C833.736 149.019 833.672 148.528 833.672 148.016C833.672 147.12 833.971 146.437 834.568 145.968C835.165 145.499 835.891 145.157 836.744 144.944C837.64 144.731 838.515 144.56 839.368 144.432C840.264 144.261 840.989 144.069 841.544 143.856C842.44 143.472 843.315 142.96 844.168 142.32C845.021 141.68 845.725 140.997 846.28 140.272C846.877 139.547 847.176 138.864 847.176 138.224C847.176 136.56 846.557 135.323 845.32 134.512C844.083 133.701 842.739 133.296 841.288 133.296C840.051 133.296 838.941 133.531 837.96 134C837.021 134.427 836.147 134.939 835.336 135.536C834.568 136.133 833.8 136.667 833.032 137.136C832.264 137.563 831.453 137.776 830.6 137.776C829.789 137.776 829.043 137.541 828.36 137.072C827.677 136.56 827.336 135.899 827.336 135.088C827.336 134.021 827.699 133.04 828.424 132.144C829.192 131.248 830.173 130.459 831.368 129.776C832.563 129.051 833.821 128.453 835.144 127.984C836.509 127.472 837.789 127.088 838.984 126.832C840.179 126.576 841.16 126.448 841.928 126.448C844.019 126.448 845.981 126.917 847.816 127.856C849.651 128.752 851.123 130.032 852.232 131.696C853.384 133.317 853.96 135.195 853.96 137.328C853.96 139.291 853.555 141.04 852.744 142.576C851.976 144.112 850.909 145.627 849.544 147.12V147.632C851.379 149.168 852.829 150.789 853.896 152.496C855.005 154.16 855.56 156.123 855.56 158.384C855.56 160.773 854.984 162.907 853.832 164.784C852.723 166.619 851.251 168.176 849.416 169.456C847.624 170.736 845.64 171.717 843.464 172.4C841.331 173.04 839.24 173.36 837.192 173.36Z" fill="#23577C"/>
<line x1="93.682" y1="80.1505" x2="369.682" y2="331.15" stroke="#FEAC3C" stroke-width="5" stroke-dasharray="6 6"/>
<line x1="466.916" y1="330.747" x2="786.916" y2="176.747" stroke="#FEAC3C" stroke-width="5" stroke-dasharray="6 6"/>
<defs>
<filter id="filter0_d_18_50" x="364" y="308" width="108" height="108" filterUnits="userSpaceOnUse" color-interpolation-filters="sRGB">
<feFlood flood-opacity="0" result="BackgroundImageFix"/>
<feColorMatrix in="SourceAlpha" type="matrix" values="0 0 0 0 0 0 0 0 0 0 0 0 0 0 0 0 0 0 127 0" result="hardAlpha"/>
<feOffset dy="4"/>
<feGaussianBlur stdDeviation="2"/>
<feComposite in2="hardAlpha" operator="out"/>
<feColorMatrix type="matrix" values="0 0 0 0 0 0 0 0 0 0 0 0 0 0 0 0 0 0 0.25 0"/>
<feBlend mode="normal" in2="BackgroundImageFix" result="effect1_dropShadow_18_50"/>
<feBlend mode="normal" in="SourceGraphic" in2="effect1_dropShadow_18_50" result="shape"/>
</filter>
<filter id="filter1_d_18_50" x="0" y="0" width="108" height="108" filterUnits="userSpaceOnUse" color-interpolation-filters="sRGB">
<feFlood flood-opacity="0" result="BackgroundImageFix"/>
<feColorMatrix in="SourceAlpha" type="matrix" values="0 0 0 0 0 0 0 0 0 0 0 0 0 0 0 0 0 0 127 0" result="hardAlpha"/>
<feOffset dy="4"/>
<feGaussianBlur stdDeviation="2"/>
<feComposite in2="hardAlpha" operator="out"/>
<feColorMatrix type="matrix" values="0 0 0 0 0 0 0 0 0 0 0 0 0 0 0 0 0 0 0.25 0"/>
<feBlend mode="normal" in2="BackgroundImageFix" result="effect1_dropShadow_18_50"/>
<feBlend mode="normal" in="SourceGraphic" in2="effect1_dropShadow_18_50" result="shape"/>
</filter>
<filter id="filter2_d_18_50" x="784" y="100" width="108" height="108" filterUnits="userSpaceOnUse" color-interpolation-filters="sRGB">
<feFlood flood-opacity="0" result="BackgroundImageFix"/>
<feColorMatrix in="SourceAlpha" type="matrix" values="0 0 0 0 0 0 0 0 0 0 0 0 0 0 0 0 0 0 127 0" result="hardAlpha"/>
<feOffset dy="4"/>
<feGaussianBlur stdDeviation="2"/>
<feComposite in2="hardAlpha" operator="out"/>
<feColorMatrix type="matrix" values="0 0 0 0 0 0 0 0 0 0 0 0 0 0 0 0 0 0 0.25 0"/>
<feBlend mode="normal" in2="BackgroundImageFix" result="effect1_dropShadow_18_50"/>
<feBlend mode="normal" in="SourceGraphic" in2="effect1_dropShadow_18_50" result="shape"/>
</filter>
</defs>
</svg>
